<svg viewBox="0 0 600 600" width="600" height="600" xmlns="http://www.w3.org/2000/svg"><defs><linearGradient id="g" x1="0" y1="0" x2="1" y2="1"><stop offset="0" stop-color="#4a235a"/><stop offset="1" stop-color="#7d4a94"/></linearGradient></defs><rect width="600" height="600" fill="url(#g)"/><line x1="-600" y1="600" x2="0" y2="0" stroke="#ffffff" stroke-opacity=".07" stroke-width="1.6"/><line x1="-556" y1="600" x2="44" y2="0" stroke="#ffffff" stroke-opacity=".07" stroke-width="1.6"/><line x1="-512" y1="600" x2="88" y2="0" stroke="#ffffff" stroke-opacity=".07" stroke-width="1.6"/><line x1="-468" y1="600" x2="132" y2="0" stroke="#ffffff" stroke-opacity=".07" stroke-width="1.6"/><line x1="-424" y1="600" x2="176" y2="0" stroke="#ffffff" stroke-opacity=".07" stroke-width="1.6"/><line x1="-380" y1="600" x2="220" y2="0" stroke="#ffffff" stroke-opacity=".07" stroke-width="1.6"/><line x1="-336" y1="600" x2="264" y2="0" stroke="#ffffff" stroke-opacity=".07" stroke-width="1.6"/><line x1="-292" y1="600" x2="308" y2="0" stroke="#ffffff" stroke-opacity=".07" stroke-width="1.6"/><line x1="-248" y1="600" x2="352" y2="0" stroke="#ffffff" stroke-opacity=".07" stroke-width="1.6"/><line x1="-204" y1="600" x2="396" y2="0" stroke="#ffffff" stroke-opacity=".07" stroke-width="1.6"/><line x1="-160" y1="600" x2="440" y2="0" stroke="#ffffff" stroke-opacity=".07" stroke-width="1.6"/><line x1="-116" y1="600" x2="484" y2="0" stroke="#ffffff" stroke-opacity=".07" stroke-width="1.6"/><line x1="-72" y1="600" x2="528" y2="0" stroke="#ffffff" stroke-opacity=".07" stroke-width="1.6"/><line x1="-28" y1="600" x2="572" y2="0" stroke="#ffffff" stroke-opacity=".07" stroke-width="1.6"/><line x1="16" y1="600" x2="616" y2="0" stroke="#ffffff" stroke-opacity=".07" stroke-width="1.6"/><line x1="60" y1="600" x2="660" y2="0" stroke="#ffffff" stroke-opacity=".07" stroke-width="1.6"/><line x1="104" y1="600" x2="704" y2="0" stroke="#ffffff" stroke-opacity=".07" stroke-width="1.6"/><line x1="148" y1="600" x2="748" y2="0" stroke="#ffffff" stroke-opacity=".07" stroke-width="1.6"/><line x1="192" y1="600" x2="792" y2="0" stroke="#ffffff" stroke-opacity=".07" stroke-width="1.6"/><line x1="236" y1="600" x2="836" y2="0" stroke="#ffffff" stroke-opacity=".07" stroke-width="1.6"/><line x1="280" y1="600" x2="880" y2="0" stroke="#ffffff" stroke-opacity=".07" stroke-width="1.6"/><line x1="324" y1="600" x2="924" y2="0" stroke="#ffffff" stroke-opacity=".07" stroke-width="1.6"/><line x1="368" y1="600" x2="968" y2="0" stroke="#ffffff" stroke-opacity=".07" stroke-width="1.6"/><line x1="412" y1="600" x2="1012" y2="0" stroke="#ffffff" stroke-opacity=".07" stroke-width="1.6"/><line x1="456" y1="600" x2="1056" y2="0" stroke="#ffffff" stroke-opacity=".07" stroke-width="1.6"/><line x1="500" y1="600" x2="1100" y2="0" stroke="#ffffff" stroke-opacity=".07" stroke-width="1.6"/><line x1="544" y1="600" x2="1144" y2="0" stroke="#ffffff" stroke-opacity=".07" stroke-width="1.6"/><line x1="588" y1="600" x2="1188" y2="0" stroke="#ffffff" stroke-opacity=".07" stroke-width="1.6"/><rect x="188" y="352" width="38" height="40" rx="5" fill="#ffffff" fill-opacity="0.16"/><rect x="246" y="326" width="38" height="66" rx="5" fill="#ffffff" fill-opacity="0.25"/><rect x="304" y="300" width="38" height="92" rx="5" fill="#ffffff" fill-opacity="0.34"/><rect x="362" y="274" width="38" height="118" rx="5" fill="#ffffff" fill-opacity="0.43"/><text x="300.0" y="268" text-anchor="middle" font-family="Georgia, 'Times New Roman', serif" font-size="52" font-weight="700" fill="#ffffff">Cost of Living</text><text x="300.0" y="330" text-anchor="middle" font-family="Georgia, 'Times New Roman', serif" font-size="52" font-weight="700" fill="#ffffff">&amp; Budgeting</text><rect x="254.0" y="396" width="92" height="5" rx="2.5" fill="#e8c46a" fill-opacity=".9"/></svg>