<svg viewBox="0 0 600 600" width="600" height="600" xmlns="http://www.w3.org/2000/svg"><defs><linearGradient id="brand" x1="0" y1="0" x2="1" y2="1"><stop offset="0" stop-color="#123a54"/><stop offset=".55" stop-color="#1a5276"/><stop offset="1" stop-color="#2b7fb5"/></linearGradient></defs><rect width="600" height="600" fill="url(#brand)"/><line x1="-600" y1="600" x2="0" y2="0" stroke="#ffffff" stroke-opacity=".08" stroke-width="1.6"/><line x1="-554" y1="600" x2="46" y2="0" stroke="#ffffff" stroke-opacity=".08" stroke-width="1.6"/><line x1="-508" y1="600" x2="92" y2="0" stroke="#ffffff" stroke-opacity=".08" stroke-width="1.6"/><line x1="-462" y1="600" x2="138" y2="0" stroke="#ffffff" stroke-opacity=".08" stroke-width="1.6"/><line x1="-416" y1="600" x2="184" y2="0" stroke="#ffffff" stroke-opacity=".08" stroke-width="1.6"/><line x1="-370" y1="600" x2="230" y2="0" stroke="#ffffff" stroke-opacity=".08" stroke-width="1.6"/><line x1="-324" y1="600" x2="276" y2="0" stroke="#ffffff" stroke-opacity=".08" stroke-width="1.6"/><line x1="-278" y1="600" x2="322" y2="0" stroke="#ffffff" stroke-opacity=".08" stroke-width="1.6"/><line x1="-232" y1="600" x2="368" y2="0" stroke="#ffffff" stroke-opacity=".08" stroke-width="1.6"/><line x1="-186" y1="600" x2="414" y2="0" stroke="#ffffff" stroke-opacity=".08" stroke-width="1.6"/><line x1="-140" y1="600" x2="460" y2="0" stroke="#ffffff" stroke-opacity=".08" stroke-width="1.6"/><line x1="-94" y1="600" x2="506" y2="0" stroke="#ffffff" stroke-opacity=".08" stroke-width="1.6"/><line x1="-48" y1="600" x2="552" y2="0" stroke="#ffffff" stroke-opacity=".08" stroke-width="1.6"/><line x1="-2" y1="600" x2="598" y2="0" stroke="#ffffff" stroke-opacity=".08" stroke-width="1.6"/><line x1="44" y1="600" x2="644" y2="0" stroke="#ffffff" stroke-opacity=".08" stroke-width="1.6"/><line x1="90" y1="600" x2="690" y2="0" stroke="#ffffff" stroke-opacity=".08" stroke-width="1.6"/><line x1="136" y1="600" x2="736" y2="0" stroke="#ffffff" stroke-opacity=".08" stroke-width="1.6"/><line x1="182" y1="600" x2="782" y2="0" stroke="#ffffff" stroke-opacity=".08" stroke-width="1.6"/><line x1="228" y1="600" x2="828" y2="0" stroke="#ffffff" stroke-opacity=".08" stroke-width="1.6"/><line x1="274" y1="600" x2="874" y2="0" stroke="#ffffff" stroke-opacity=".08" stroke-width="1.6"/><line x1="320" y1="600" x2="920" y2="0" stroke="#ffffff" stroke-opacity=".08" stroke-width="1.6"/><line x1="366" y1="600" x2="966" y2="0" stroke="#ffffff" stroke-opacity=".08" stroke-width="1.6"/><line x1="412" y1="600" x2="1012" y2="0" stroke="#ffffff" stroke-opacity=".08" stroke-width="1.6"/><line x1="458" y1="600" x2="1058" y2="0" stroke="#ffffff" stroke-opacity=".08" stroke-width="1.6"/><line x1="504" y1="600" x2="1104" y2="0" stroke="#ffffff" stroke-opacity=".08" stroke-width="1.6"/><line x1="550" y1="600" x2="1150" y2="0" stroke="#ffffff" stroke-opacity=".08" stroke-width="1.6"/><line x1="596" y1="600" x2="1196" y2="0" stroke="#ffffff" stroke-opacity=".08" stroke-width="1.6"/><circle cx="300.0" cy="300.0" r="252" fill="none" stroke="#ffffff" stroke-opacity=".26" stroke-width="4"/><circle cx="300.0" cy="300.0" r="228" fill="none" stroke="#e8c46a" stroke-opacity=".55" stroke-width="3"/><text x="300.0" y="334.0" text-anchor="middle" font-family="Georgia, 'Times New Roman', serif" font-size="196" font-weight="700" fill="#ffffff" letter-spacing="-6">EH</text><rect x="234.0" y="374.0" width="132" height="7" rx="3.5" fill="#e8c46a" fill-opacity=".9"/></svg>